<svg width="44" height="44" viewBox="0 0 44 44" fill="none" xmlns="http://www.w3.org/2000/svg">
<rect width="44" height="44" rx="22" fill="#648D80"/>
<path fill-rule="evenodd" clip-rule="evenodd" d="M24.4553 12.4736C23.6943 12.1676 22.865 12 22 12C18.6439 12 15.8245 14.5235 15.4539 17.859L15.2021 20.1252L15.1961 20.1793C15.0832 21.1625 14.7632 22.1106 14.2571 22.9611L14.2291 23.0077L13.6511 23.9711L13.627 24.0114C13.3854 24.4138 13.1666 24.7785 13.0209 25.0879C12.8727 25.4024 12.7144 25.8286 12.7906 26.3117C12.866 26.7893 13.1117 27.2233 13.4825 27.5337C13.8575 27.8476 14.3044 27.931 14.6503 27.9658C14.9907 28.0001 15.4159 28 15.8853 28L15.9322 28H28.0677L28.1146 28C28.584 28 29.0093 28.0001 29.3497 27.9658C29.6955 27.931 30.1424 27.8476 30.5175 27.5337C30.8882 27.2233 31.134 26.7893 31.2093 26.3117C31.2856 25.8286 31.1272 25.4024 30.9791 25.0879C30.8333 24.7785 30.6145 24.4138 30.373 24.0114L30.3488 23.9711L29.7708 23.0077L29.7429 22.9611C29.3641 22.3247 29.0896 21.6336 28.9281 20.914C28.6274 20.9705 28.3171 21 28 21C27.616 21 27.2422 20.9567 26.883 20.8748C27.0676 21.9715 27.4541 23.0259 28.0242 23.9839L28.0558 24.0367L28.6339 25.0001C28.9074 25.456 29.0722 25.733 29.1697 25.9401C29.175 25.9514 29.1799 25.9621 29.1844 25.972C29.1736 25.9733 29.1619 25.9746 29.1495 25.9759C28.9217 25.9988 28.5993 26 28.0677 26H15.9322C15.4006 26 15.0782 25.9988 14.8505 25.9759C14.838 25.9746 14.8264 25.9733 14.8155 25.972C14.82 25.9621 14.8249 25.9514 14.8302 25.9401C14.9278 25.733 15.0926 25.456 15.3661 25.0001L15.9441 24.0367L15.9758 23.9839C16.6265 22.8904 17.038 21.6714 17.183 20.4073L17.1899 20.3461L17.4417 18.0798C17.6998 15.7572 19.663 14 22 14C22.463 14 22.9113 14.069 23.3347 14.1977C23.5866 13.5459 23.9712 12.9602 24.4553 12.4736ZM26.9821 14.278C26.3942 14.6263 26 15.2671 26 16C26 16.145 26.0154 16.2865 26.0447 16.4227C26.1651 16.6476 26.2675 16.884 26.3497 17.1302C26.7101 17.6555 27.3148 18 28 18C28.1918 18 28.3774 17.973 28.5531 17.9225L28.546 17.859C28.3938 16.4887 27.8283 15.2555 26.9821 14.278Z" fill="white"/>
<path d="M19.1022 27.6647C19.2731 28.6215 19.6498 29.467 20.1737 30.0701C20.6976 30.6731 21.3396 31 22 31C22.6604 31 23.3024 30.6731 23.8263 30.0701C24.3502 29.467 24.7269 28.6215 24.8978 27.6647" stroke="white" stroke-width="2" stroke-linecap="round"/>
<circle cx="28" cy="16" r="2.5" fill="white" stroke="white"/>
</svg>
