<svg width="44" height="44" viewBox="0 0 44 44" fill="none" xmlns="http://www.w3.org/2000/svg">
<rect width="44" height="44" rx="22" fill="#648D80"/>
<path d="M23.925 12.5041C24.317 12.504 24.7023 12.6064 25.0426 12.8011C25.3829 12.9958 25.6664 13.2761 25.865 13.6141L26.679 15.0011H28.75C29.6118 15.0011 30.4383 15.3433 31.0477 15.9526C31.6572 16.5619 31.9997 17.3883 32 18.2501V27.7501C32 28.1768 31.9159 28.5995 31.7526 28.9938C31.5893 29.3881 31.3499 29.7464 31.0481 30.0481C30.7463 30.3499 30.388 30.5893 29.9937 30.7527C29.5994 30.916 29.1768 31.0001 28.75 31.0001H15.25C14.388 31.0001 13.5614 30.6576 12.9519 30.0481C12.3424 29.4387 12 28.612 12 27.7501V18.2501C12 17.3881 12.3424 16.5614 12.9519 15.952C13.5614 15.3425 14.388 15.0001 15.25 15.0001H17.33L18.205 13.5761C18.4062 13.2483 18.688 12.9775 19.0236 12.7897C19.3592 12.6018 19.7374 12.5032 20.122 12.5031H23.925V12.5041ZM23.925 14.0041H20.122C20.0126 14.0041 19.9045 14.0282 19.8053 14.0745C19.7062 14.1208 19.6183 14.1882 19.548 14.2721L19.483 14.3621L18.39 16.1421C18.323 16.2514 18.229 16.3417 18.1172 16.4044C18.0053 16.467 17.8792 16.5 17.751 16.5001H15.251C15.0211 16.4999 14.7934 16.5451 14.581 16.633C14.3686 16.7209 14.1755 16.8497 14.0129 17.0123C13.8503 17.1748 13.7213 17.3677 13.6333 17.5801C13.5453 17.7925 13.5 18.0202 13.5 18.2501V27.7501C13.5 28.7161 14.284 29.5001 15.25 29.5001H28.75C29.2141 29.5001 29.6592 29.3157 29.9874 28.9875C30.3156 28.6593 30.5 28.2142 30.5 27.7501V18.2501C30.5 17.7859 30.3156 17.3408 29.9874 17.0126C29.6592 16.6844 29.2141 16.5001 28.75 16.5001H26.25C26.1193 16.5001 25.9908 16.466 25.8773 16.4011C25.7638 16.3362 25.6692 16.2428 25.603 16.1301L24.571 14.3731C24.5048 14.2605 24.4104 14.1671 24.2971 14.1022C24.1838 14.0373 24.0556 14.0032 23.925 14.0031V14.0041ZM22 18.0001C23.1935 18.0001 24.3381 18.4742 25.182 19.3181C26.0259 20.162 26.5 21.3066 26.5 22.5001C26.5 23.6935 26.0259 24.8381 25.182 25.682C24.3381 26.5259 23.1935 27.0001 22 27.0001C20.8065 27.0001 19.6619 26.5259 18.818 25.682C17.9741 24.8381 17.5 23.6935 17.5 22.5001C17.5 21.3066 17.9741 20.162 18.818 19.3181C19.6619 18.4742 20.8065 18.0001 22 18.0001ZM22 19.5001C21.606 19.5001 21.2159 19.5776 20.8519 19.7284C20.488 19.8792 20.1573 20.1002 19.8787 20.3787C19.6001 20.6573 19.3791 20.988 19.2284 21.352C19.0776 21.716 19 22.1061 19 22.5001C19 22.894 19.0776 23.2841 19.2284 23.6481C19.3791 24.0121 19.6001 24.3428 19.8787 24.6214C20.1573 24.8999 20.488 25.1209 20.8519 25.2717C21.2159 25.4225 21.606 25.5001 22 25.5001C22.7956 25.5001 23.5587 25.184 24.1213 24.6214C24.6839 24.0588 25 23.2957 25 22.5001C25 21.7044 24.6839 20.9413 24.1213 20.3787C23.5587 19.8161 22.7956 19.5001 22 19.5001Z" fill="white" stroke="white" stroke-width="0.6"/>
</svg>
