<svg width="22" height="22" viewBox="0 0 22 22" fill="none" xmlns="http://www.w3.org/2000/svg">
<path d="M1.73332 10.9998C1.73113 12.4596 2.07533 13.8981 2.73651 15.1976C2.78068 15.2844 2.79418 15.3826 2.77351 15.4757L1.9062 19.3778C1.81091 19.8065 2.19337 20.189 2.62208 20.0937L6.52426 19.2264C6.61726 19.2057 6.71551 19.2192 6.80232 19.2634L11 20.1666V20.2666C11 20.2666 11.0001 20.2666 11.0001 20.2666C16.1181 20.2665 20.2667 16.1178 20.2667 10.9999C20.2667 5.88194 16.118 1.73325 11 1.73325C5.88206 1.73325 1.7334 5.88186 1.73332 10.9998ZM1.73332 10.9998L1.83332 10.9999H1.73332C1.73332 10.9999 1.73332 10.9998 1.73332 10.9998ZM11 18.2333H10.9998C9.81216 18.2357 8.6424 17.9441 7.59496 17.3843L7.29087 17.2213C7.07984 17.1082 6.83522 17.0746 6.60149 17.1265L4.37954 17.6204L4.87352 15.3978C4.92538 15.1645 4.89195 14.9203 4.77928 14.7095L4.61652 14.405L4.61647 14.4049C4.06053 13.3671 3.76666 12.2063 3.76666 10.9999C3.76666 9.5693 4.19088 8.17081 4.98569 6.98129C5.7805 5.79178 6.9102 4.86466 8.23191 4.31719C9.55363 3.76972 11.008 3.62647 12.4111 3.90557C13.8143 4.18467 15.1031 4.87358 16.1147 5.88518C17.1263 6.89678 17.8152 8.18564 18.0943 9.58877C18.3734 10.9919 18.2302 12.4463 17.6827 13.768C17.1352 15.0897 16.2081 16.2194 15.0186 17.0142C13.8291 17.809 12.4306 18.2333 11 18.2333Z" fill="white" stroke="white" stroke-width="0.2"/>
</svg>
