<svg width="26" height="26" viewBox="0 0 26 26" fill="none" xmlns="http://www.w3.org/2000/svg">
<path d="M5.41666 13.8228C5.41666 12.3519 5.41666 11.6165 5.71399 10.97C6.01132 10.3236 6.56972 9.84493 7.68651 8.88768L8.76985 7.9591C10.7884 6.22888 11.7977 5.36377 13 5.36377C14.2022 5.36377 15.2115 6.22888 17.2301 7.9591L18.3135 8.88768C19.4303 9.84493 19.9887 10.3236 20.286 10.97C20.5833 11.6165 20.5833 12.3519 20.5833 13.8228V18.4166C20.5833 20.4594 20.5833 21.4807 19.9487 22.1153C19.3141 22.7499 18.2927 22.7499 16.25 22.7499H9.74999C7.70724 22.7499 6.68586 22.7499 6.05126 22.1153C5.41666 21.4807 5.41666 20.4594 5.41666 18.4166V13.8228Z" stroke="white" stroke-width="2"/>
<path d="M15.7083 22.75V17.25C15.7083 16.6977 15.2606 16.25 14.7083 16.25H11.2917C10.7394 16.25 10.2917 16.6977 10.2917 17.25V22.75" stroke="white" stroke-width="2" stroke-linecap="round" stroke-linejoin="round"/>
</svg>
