<svg width="20" height="18" viewBox="0 0 20 18" fill="none" xmlns="http://www.w3.org/2000/svg">
<path fill-rule="evenodd" clip-rule="evenodd" d="M10 2.52422L10.765 1.70229C12.8777 -0.567429 16.3029 -0.567429 18.4155 1.70229C20.5282 3.972 20.5282 7.65194 18.4155 9.92165L11.5301 17.3191C10.685 18.227 9.31495 18.227 8.4699 17.3191L1.58447 9.92165C-0.528156 7.65194 -0.528155 3.972 1.58447 1.70229C3.69709 -0.56743 7.12233 -0.567428 9.23495 1.70229L10 2.52422ZM15 2.25C14.5858 2.25 14.25 2.58579 14.25 3C14.25 3.41421 14.5858 3.75 15 3.75C15.6904 3.75 16.25 4.30964 16.25 5C16.25 5.41421 16.5858 5.75 17 5.75C17.4142 5.75 17.75 5.41421 17.75 5C17.75 3.48122 16.5188 2.25 15 2.25Z" fill="#648D80"/>
</svg>
