<svg width="121" height="121" viewBox="0 0 121 121" fill="none" xmlns="http://www.w3.org/2000/svg">
<path d="M114.705 74.5904C116.274 75.7198 118.461 75.3638 119.59 73.7951C120.72 72.2264 120.364 70.0391 118.795 68.9096L114.705 74.5904ZM100.218 59.847L98.173 62.6874L98.173 62.6874L100.218 59.847ZM72.0195 61.3824L74.3609 63.984L74.3609 63.984L72.0195 61.3824ZM48.9805 82.1176L51.3219 84.7191L51.3219 84.7191L48.9805 82.1176ZM20.7819 83.653L22.827 80.8126L22.827 80.8126L20.7819 83.653ZM6.29507 68.9096C4.72637 67.7802 2.53909 68.1362 1.40963 69.7049C0.280171 71.2736 0.63624 73.4609 2.20493 74.5904L6.29507 68.9096ZM26.75 7.75H94.25V0.75H26.75V7.75ZM113.25 26.75V94.25H120.25V26.75H113.25ZM94.25 113.25H26.75V120.25H94.25V113.25ZM7.75 94.25V26.75H0.75V94.25H7.75ZM26.75 113.25C16.2566 113.25 7.75 104.743 7.75 94.25H0.75C0.75 108.609 12.3906 120.25 26.75 120.25V113.25ZM113.25 94.25C113.25 104.743 104.743 113.25 94.25 113.25V120.25C108.609 120.25 120.25 108.609 120.25 94.25H113.25ZM94.25 7.75C104.743 7.75 113.25 16.2566 113.25 26.75H120.25C120.25 12.3906 108.609 0.75 94.25 0.75V7.75ZM26.75 0.75C12.3906 0.75 0.75 12.3906 0.75 26.75H7.75C7.75 16.2566 16.2566 7.75 26.75 7.75V0.75ZM118.795 68.9096L102.263 57.0066L98.173 62.6874L114.705 74.5904L118.795 68.9096ZM69.6782 58.7809L46.6391 79.516L51.3219 84.7191L74.3609 63.984L69.6782 58.7809ZM22.827 80.8126L6.29507 68.9096L2.20493 74.5904L18.7368 86.4933L22.827 80.8126ZM46.6391 79.516C39.9949 85.4958 30.0811 86.0356 22.827 80.8126L18.7368 86.4933C28.6636 93.6406 42.2298 92.9019 51.3219 84.7191L46.6391 79.516ZM102.263 57.0066C92.3364 49.8594 78.7702 50.5981 69.6782 58.7809L74.3609 63.984C81.0051 58.0042 90.9189 57.4644 98.173 62.6874L102.263 57.0066ZM51.375 40.8125C51.375 46.646 46.646 51.375 40.8125 51.375V58.375C50.512 58.375 58.375 50.512 58.375 40.8125H51.375ZM40.8125 51.375C34.979 51.375 30.25 46.646 30.25 40.8125H23.25C23.25 50.512 31.113 58.375 40.8125 58.375V51.375ZM30.25 40.8125C30.25 34.979 34.979 30.25 40.8125 30.25V23.25C31.113 23.25 23.25 31.113 23.25 40.8125H30.25ZM40.8125 30.25C46.646 30.25 51.375 34.979 51.375 40.8125H58.375C58.375 31.113 50.512 23.25 40.8125 23.25V30.25Z" fill="#7BB09F"/>
</svg>
