<svg width="25" height="25" viewBox="0 0 25 25" fill="none" xmlns="http://www.w3.org/2000/svg">
<path fill-rule="evenodd" clip-rule="evenodd" d="M5.32954 12.1125C5.32954 15.8586 8.36637 18.8954 12.1125 18.8954C15.8586 18.8954 18.8954 15.8586 18.8954 12.1125C18.8954 8.36637 15.8586 5.32954 12.1125 5.32954C8.36637 5.32954 5.32954 8.36637 5.32954 12.1125ZM12.1125 20.0582C7.72417 20.0582 4.16675 16.5008 4.16675 12.1125C4.16675 7.72418 7.72417 4.16675 12.1125 4.16675C16.5008 4.16675 20.0582 7.72418 20.0582 12.1125C20.0582 14.0974 19.3304 15.9123 18.1271 17.3049L20.6631 19.8409C20.8902 20.068 20.8902 20.4361 20.6631 20.6631C20.4361 20.8902 20.068 20.8902 19.8409 20.6631L17.3049 18.1271C15.9123 19.3304 14.0974 20.0582 12.1125 20.0582Z" fill="black"/>
</svg>
