<svg width="25" height="25" viewBox="0 0 25 25" fill="none" xmlns="http://www.w3.org/2000/svg">
<path fill-rule="evenodd" clip-rule="evenodd" d="M5.32942 12.1125C5.32942 15.8586 8.36624 18.8954 12.1124 18.8954C15.8585 18.8954 18.8953 15.8586 18.8953 12.1125C18.8953 8.36637 15.8585 5.32954 12.1124 5.32954C8.36624 5.32954 5.32942 8.36637 5.32942 12.1125ZM12.1124 20.0582C7.72405 20.0582 4.16663 16.5008 4.16663 12.1125C4.16663 7.72418 7.72405 4.16675 12.1124 4.16675C16.5007 4.16675 20.0581 7.72418 20.0581 12.1125C20.0581 14.0974 19.3303 15.9123 18.127 17.3049L20.663 19.8409C20.8901 20.068 20.8901 20.4361 20.663 20.6631C20.436 20.8902 20.0678 20.8902 19.8408 20.6631L17.3048 18.1271C15.9122 19.3304 14.0973 20.0582 12.1124 20.0582Z" fill="black" stroke="black" stroke-linecap="round" stroke-linejoin="round"/>
</svg>
