<svg width="18" height="16" viewBox="0 0 18 16" fill="none" xmlns="http://www.w3.org/2000/svg">
<path d="M2.70893 8.59009L8.50278 14.0328C8.64793 14.1691 8.7205 14.2373 8.79942 14.2719C8.9273 14.3279 9.07278 14.3279 9.20066 14.2719C9.27958 14.2373 9.35215 14.1691 9.4973 14.0328L15.2911 8.59009C16.9213 7.05874 17.1192 4.53875 15.7482 2.77164L15.4904 2.43937C13.8503 0.325403 10.5581 0.679931 9.4056 3.09463C9.2428 3.43572 8.75728 3.43572 8.59448 3.09463C7.44202 0.679931 4.14981 0.325404 2.50966 2.43937L2.25186 2.77164C0.88083 4.53875 1.07879 7.05874 2.70893 8.59009Z" stroke="#648D80" stroke-width="2"/>
</svg>
